<?xml version="1.0" encoding="utf-8"?>
<!-- Generator: Adobe Illustrator 21.0.2, SVG Export Plug-In . SVG Version: 6.00 Build 0)  -->
<svg version="1.1" id="Layer_1" xmlns="http://www.w3.org/2000/svg" xmlns:xlink="http://www.w3.org/1999/xlink" x="0px" y="0px"
	 viewBox="0 0 69 63" style="enable-background:new 0 0 69 63;" xml:space="preserve">
<style type="text/css">
	.st0{fill:none;stroke:#969696;stroke-width:2;stroke-linecap:round;stroke-linejoin:round;stroke-miterlimit:10;}
	.st1{fill:#FFFFFF;stroke:#969696;stroke-width:2;stroke-linecap:round;stroke-miterlimit:10;}
	.st2{fill:#969696;}
	.st3{fill:none;}
	.st4{enable-background:new    ;}
</style>
<path class="st0" d="M67,45v14.6c0,0.7-0.6,1.4-1.4,1.4H3.4C2.6,61,2,60.4,2,59.6V28"/>
<line class="st0" x1="2" y1="21.5" x2="2" y2="23.5"/>
<line class="st0" x1="67" y1="39.5" x2="67" y2="41.5"/>
<path class="st0" d="M42.2,3h23.5C66.4,3,67,3.6,67,4.4v31"/>
<path class="st0" d="M2,17V4.4C2,3.6,2.6,3,3.4,3H17"/>
<path class="st1" d="M22,2.2h43.6c0.7,0,1.4,0.6,1.4,1.4v4C67,8.3,66.4,9,65.6,9H3.4C2.6,8.9,2,8.2,2,7.5v-4c0-0.7,0.6-1.4,1.4-1.4
	h14.8"/>
<g>
	<path class="st2" d="M64.4,6.9H62c-0.3,0-0.6-0.2-0.6-0.6V4.7c0-0.3,0.2-0.6,0.6-0.6h2.5c0.3,0,0.6,0.2,0.6,0.6v1.6
		C65,6.6,64.8,6.9,64.4,6.9z"/>
</g>
<g>
	<path class="st2" d="M59.9,6.9h-2.5c-0.3,0-0.6-0.2-0.6-0.6V4.7c0-0.3,0.2-0.6,0.6-0.6h2.5c0.3,0,0.6,0.2,0.6,0.6v1.6
		C60.5,6.6,60.3,6.9,59.9,6.9z"/>
</g>
<g>
	<path class="st2" d="M55.4,6.9H53c-0.3,0-0.6-0.2-0.6-0.6V4.7c0-0.3,0.2-0.6,0.6-0.6h2.5c0.3,0,0.6,0.2,0.6,0.6v1.6
		C56,6.6,55.8,6.9,55.4,6.9z"/>
</g>
<rect x="6.3" y="28" class="st3" width="48.7" height="33"/>
<g class="st4">
	<path class="st2" d="M6.9,46.9l8-18.9h4.8v18.9h2.1v4h-2.1V56h-4.3v-5.1H6.9V46.9z M15.4,46.9V36.4l-4.4,10.5H15.4z"/>
	<path class="st2" d="M23.4,34.7c0-4.5,2.4-7,6.7-7c4.3,0,6.7,2.6,6.7,7v14.6c0,4.5-2.4,7-6.7,7c-4.3,0-6.7-2.6-6.7-7V34.7z
		 M27.8,49.6c0,2,0.9,2.8,2.3,2.8c1.4,0,2.3-0.8,2.3-2.8V34.4c0-2-0.9-2.8-2.3-2.8c-1.4,0-2.3,0.8-2.3,2.8V49.6z"/>
	<path class="st2" d="M38.6,46.9l8-18.9h4.8v18.9h2.1v4h-2.1V56h-4.3v-5.1h-8.5V46.9z M47.1,46.9V36.4l-4.4,10.5H47.1z"/>
</g>
</svg>
